<mxfile host="app.diagrams.net" modified="2024-04-29T06:07:27.110Z" agent="Mozilla/5.0 (Macintosh; Intel Mac OS X 10_15_7) AppleWebKit/537.36 (KHTML, like Gecko) Chrome/124.0.0.0 Safari/537.36" etag="Bv0ftKznLN_8nAXjhjO1" version="24.3.1" type="github">
  <diagram id="C5RBs43oDa-KdzZeNtuy" name="Page-1">
    <mxGraphModel dx="1587" dy="1523" grid="1" gridSize="10" guides="1" tooltips="1" connect="1" arrows="1" fold="1" page="1" pageScale="1" pageWidth="827" pageHeight="1169" math="0" shadow="0">
      <root>
        <mxCell id="WIyWlLk6GJQsqaUBKTNV-0" />
        <mxCell id="WIyWlLk6GJQsqaUBKTNV-1" parent="WIyWlLk6GJQsqaUBKTNV-0" />
        <mxCell id="7YCx154t9fP-Yfrbw894-13" value="" style="edgeStyle=orthogonalEdgeStyle;rounded=0;orthogonalLoop=1;jettySize=auto;html=1;" edge="1" parent="WIyWlLk6GJQsqaUBKTNV-1" source="7YCx154t9fP-Yfrbw894-4" target="7YCx154t9fP-Yfrbw894-5">
          <mxGeometry relative="1" as="geometry" />
        </mxCell>
        <mxCell id="7YCx154t9fP-Yfrbw894-4" value="&lt;font style=&quot;font-size: 18px;&quot;&gt;시작&lt;/font&gt;" style="ellipse;whiteSpace=wrap;html=1;" vertex="1" parent="WIyWlLk6GJQsqaUBKTNV-1">
          <mxGeometry x="380" y="140" width="120" height="80" as="geometry" />
        </mxCell>
        <mxCell id="7YCx154t9fP-Yfrbw894-14" value="" style="edgeStyle=orthogonalEdgeStyle;rounded=0;orthogonalLoop=1;jettySize=auto;html=1;" edge="1" parent="WIyWlLk6GJQsqaUBKTNV-1" source="7YCx154t9fP-Yfrbw894-5" target="7YCx154t9fP-Yfrbw894-6">
          <mxGeometry relative="1" as="geometry" />
        </mxCell>
        <mxCell id="7YCx154t9fP-Yfrbw894-5" value="dan: 2&lt;div&gt;time: 1&lt;/div&gt;" style="rounded=0;whiteSpace=wrap;html=1;" vertex="1" parent="WIyWlLk6GJQsqaUBKTNV-1">
          <mxGeometry x="380" y="280" width="120" height="60" as="geometry" />
        </mxCell>
        <mxCell id="7YCx154t9fP-Yfrbw894-15" value="" style="edgeStyle=orthogonalEdgeStyle;rounded=0;orthogonalLoop=1;jettySize=auto;html=1;" edge="1" parent="WIyWlLk6GJQsqaUBKTNV-1" source="7YCx154t9fP-Yfrbw894-6" target="7YCx154t9fP-Yfrbw894-10">
          <mxGeometry relative="1" as="geometry" />
        </mxCell>
        <mxCell id="7YCx154t9fP-Yfrbw894-6" value="&quot;\(dan) * \(time) = \(dan * time)&quot;&lt;div&gt;출력&lt;/div&gt;" style="rounded=0;whiteSpace=wrap;html=1;" vertex="1" parent="WIyWlLk6GJQsqaUBKTNV-1">
          <mxGeometry x="340" y="400" width="200" height="60" as="geometry" />
        </mxCell>
        <mxCell id="7YCx154t9fP-Yfrbw894-17" value="Yes" style="edgeStyle=orthogonalEdgeStyle;rounded=0;orthogonalLoop=1;jettySize=auto;html=1;" edge="1" parent="WIyWlLk6GJQsqaUBKTNV-1" source="7YCx154t9fP-Yfrbw894-10" target="7YCx154t9fP-Yfrbw894-16">
          <mxGeometry relative="1" as="geometry" />
        </mxCell>
        <mxCell id="7YCx154t9fP-Yfrbw894-21" value="" style="edgeStyle=orthogonalEdgeStyle;rounded=0;orthogonalLoop=1;jettySize=auto;html=1;" edge="1" parent="WIyWlLk6GJQsqaUBKTNV-1" source="7YCx154t9fP-Yfrbw894-10" target="7YCx154t9fP-Yfrbw894-20">
          <mxGeometry relative="1" as="geometry">
            <Array as="points">
              <mxPoint x="640" y="560" />
              <mxPoint x="640" y="900" />
            </Array>
          </mxGeometry>
        </mxCell>
        <mxCell id="7YCx154t9fP-Yfrbw894-22" value="No" style="edgeLabel;html=1;align=center;verticalAlign=middle;resizable=0;points=[];" vertex="1" connectable="0" parent="7YCx154t9fP-Yfrbw894-21">
          <mxGeometry x="-0.1805" relative="1" as="geometry">
            <mxPoint as="offset" />
          </mxGeometry>
        </mxCell>
        <mxCell id="7YCx154t9fP-Yfrbw894-10" value="time이 9보다 작은가?" style="rhombus;whiteSpace=wrap;html=1;" vertex="1" parent="WIyWlLk6GJQsqaUBKTNV-1">
          <mxGeometry x="340" y="520" width="200" height="80" as="geometry" />
        </mxCell>
        <mxCell id="7YCx154t9fP-Yfrbw894-18" style="edgeStyle=orthogonalEdgeStyle;rounded=0;orthogonalLoop=1;jettySize=auto;html=1;" edge="1" parent="WIyWlLk6GJQsqaUBKTNV-1" source="7YCx154t9fP-Yfrbw894-16">
          <mxGeometry relative="1" as="geometry">
            <mxPoint x="440" y="370" as="targetPoint" />
            <Array as="points">
              <mxPoint x="260" y="720" />
              <mxPoint x="260" y="370" />
              <mxPoint x="330" y="370" />
            </Array>
          </mxGeometry>
        </mxCell>
        <mxCell id="7YCx154t9fP-Yfrbw894-16" value="time에 1을 더한다" style="whiteSpace=wrap;html=1;" vertex="1" parent="WIyWlLk6GJQsqaUBKTNV-1">
          <mxGeometry x="380" y="690" width="120" height="60" as="geometry" />
        </mxCell>
        <mxCell id="7YCx154t9fP-Yfrbw894-20" value="종료" style="ellipse;whiteSpace=wrap;html=1;" vertex="1" parent="WIyWlLk6GJQsqaUBKTNV-1">
          <mxGeometry x="400" y="860" width="80" height="80" as="geometry" />
        </mxCell>
      </root>
    </mxGraphModel>
  </diagram>
</mxfile>
